<?xml version="1.0" encoding="UTF-8"?>
<svg width="152px" height="125px" viewBox="0 0 152 125" version="1.1" xmlns="http://www.w3.org/2000/svg" xmlns:xlink="http://www.w3.org/1999/xlink">
    <!-- Generator: Sketch 63.1 (92452) - https://sketch.com -->
    <title>Group</title>
    <desc>Created with Sketch.</desc>
    <g id="🔴-Try-it-on---Outside-PDP" stroke="none" stroke-width="1" fill="none" fill-rule="evenodd">
        <g id="Modiface_OUT_PDP-/-Mob-/-01_01_Mob_Landscape" transform="translate(-208.000000, -60.000000)" fill-rule="nonzero">
            <g id="Group" transform="translate(208.000000, 60.000000)">
                <g id="Mobile" transform="translate(0.000000, 52.000000)" fill="#9B9B9B">
                    <path d="M98.046875,50.0210526 C98.046875,62.8736842 98.046875,75.7263158 98.046875,88.7087719 C98.046875,90.2666667 97.65625,91.8245614 97.1354167,93.2526316 C96.484375,94.8105263 95.3125,95.9789474 93.8802083,96.7578947 C92.4479167,97.5368421 90.8854167,97.9263158 89.1927083,97.9263158 C71.3541667,97.9263158 53.515625,97.9263158 35.8072917,97.9263158 C33.8541667,97.9263158 31.9010417,97.5368421 30.078125,96.4982456 C29.8177083,96.3684211 29.4270833,96.1087719 29.1666667,95.9789474 C27.2135417,94.5508772 26.171875,92.4736842 26.0416667,90.1368421 C26.0416667,89.0982456 26.0416667,88.1894737 26.0416667,87.1508772 C26.0416667,52.6175439 26.0416667,18.2140351 26.0416667,-16.3192982 C26.0416667,-19.4350877 26.8229167,-22.1614035 29.4270833,-23.9789474 C29.6875,-24.2385965 30.078125,-24.3684211 30.46875,-24.4982456 C32.03125,-25.277193 33.7239583,-25.6666667 35.546875,-25.6666667 L90.8854167,-25.6666667 C96.2239583,-24.4982456 98.3072917,-20.6035088 98.1770833,-15.4105263 C98.046875,-2.94736842 98.1770833,9.64561404 98.046875,22.1087719 M92.3177083,-11.2561404 C92.3177083,-11.645614 92.3177083,-12.1649123 92.3177083,-12.554386 L31.9010417,-12.554386 L31.9010417,82.2175439 L92.1875,82.2175439 C92.1875,81.6982456 92.1875,81.1789474 92.1875,80.6596491 C92.1875,70.0140351 92.1875,59.4982456 92.0572917,48.8526316 M66.2760417,89.4877193 C66.2760417,87.1508772 64.453125,85.3333333 62.109375,85.3333333 C59.8958333,85.3333333 57.9427083,87.1508772 57.9427083,89.4877193 C57.9427083,91.8245614 59.765625,93.7719298 62.109375,93.7719298 C64.3229167,93.6421053 66.2760417,91.6947368 66.2760417,89.4877193 Z M62.109375,-19.8245614 C59.375,-19.8245614 56.5104167,-19.8245614 53.7760417,-19.8245614 C52.9947917,-19.8245614 52.34375,-19.6947368 52.34375,-18.7859649 C52.34375,-17.877193 52.9947917,-17.877193 53.7760417,-17.877193 C59.375,-17.877193 64.9739583,-17.877193 70.5729167,-17.877193 C71.2239583,-17.877193 72.0052083,-18.0070175 72.0052083,-18.7859649 C72.0052083,-19.6947368 71.3541667,-19.8245614 70.5729167,-19.8245614 C67.7083333,-19.8245614 64.84375,-19.8245614 62.109375,-19.8245614 Z" id="Shape" transform="translate(62.112234, 36.129825) scale(1, -1) rotate(-90.000000) translate(-62.112234, -36.129825) "></path>
                </g>
                <g id="Mobile" transform="translate(115.500000, 62.500000) rotate(90.000000) translate(-115.500000, -62.500000) translate(53.000000, 26.000000)" fill="#FFFFFF">
                    <path d="M98.5648492,50.1846376 C98.5648492,63.0899947 98.5648492,75.9953519 98.5648492,89.0310662 C98.5648492,90.5953519 98.1742242,92.1596376 97.6533909,93.5935662 C97.0023492,95.1578519 95.8304742,96.3310662 94.3981825,97.113209 C92.9658909,97.8953519 91.4033909,98.2864233 89.7106825,98.2864233 C71.8721409,98.2864233 54.0335992,98.2864233 36.3252659,98.2864233 C34.3721409,98.2864233 32.4190159,97.8953519 30.5960992,96.8524947 C30.3356825,96.7221376 29.9450575,96.4614233 29.6846409,96.3310662 C27.7315159,94.8971376 26.6898492,92.8114233 26.5596409,90.4649947 C26.5596409,89.4221376 26.5596409,88.5096376 26.5596409,87.4667805 C26.5596409,52.7917805 26.5596409,18.2471376 26.5596409,-16.4278624 C26.5596409,-19.5564338 27.3408909,-22.2939338 29.9450575,-24.1189338 C30.2054742,-24.3796481 30.5960992,-24.5100053 30.9867242,-24.6403624 C32.5492242,-25.4225053 34.2419325,-25.8135767 36.0648492,-25.8135767 L91.4033909,-25.8135767 C96.7419325,-24.6403624 98.8252659,-20.7296481 98.6950575,-15.5153624 C98.5648492,-3.00107668 98.6950575,9.64356618 98.5648492,22.1578519 M92.8356825,-11.3439338 C92.8356825,-11.7350053 92.8356825,-12.2564338 92.8356825,-12.6475053 L32.4190159,-12.6475053 L32.4190159,82.513209 L92.7054742,82.513209 C92.7054742,81.9917805 92.7054742,81.4703519 92.7054742,80.9489233 C92.7054742,70.2596376 92.7054742,59.700709 92.5752659,49.0114233 M66.7940159,89.813209 C66.7940159,87.4667805 64.9710992,85.6417805 62.6273492,85.6417805 C60.4138075,85.6417805 58.4606825,87.4667805 58.4606825,89.813209 C58.4606825,92.1596376 60.2835992,94.1149947 62.6273492,94.1149947 C64.8408909,93.9846376 66.7940159,92.0292805 66.7940159,89.813209 Z M62.6273492,-19.9475053 C59.8929742,-19.9475053 57.0283909,-19.9475053 54.2940159,-19.9475053 C53.5127659,-19.9475053 52.8617242,-19.8171481 52.8617242,-18.9046481 C52.8617242,-17.9921481 53.5127659,-17.9921481 54.2940159,-17.9921481 C59.8929742,-17.9921481 65.4919325,-17.9921481 71.0908909,-17.9921481 C71.7419325,-17.9921481 72.5231825,-18.1225053 72.5231825,-18.9046481 C72.5231825,-19.8171481 71.8721409,-19.9475053 71.0908909,-19.9475053 C68.2263075,-19.9475053 65.3617242,-19.9475053 62.6273492,-19.9475053 Z" id="Shape" transform="translate(62.630208, 36.236423) scale(1, -1) rotate(-90.000000) translate(-62.630208, -36.236423) "></path>
                </g>
            </g>
        </g>
    </g>
</svg>